HIERARCHY
ROOT Hips
{
	OFFSET 0.00000 0.00000 0.00000
	CHANNELS 6 Xposition Yposition Zposition Zrotation Yrotation Xrotation 
	JOINT LHipJoint
	{
		OFFSET 0 0 0
		CHANNELS 3 Zrotation Yrotation Xrotation
		JOINT LeftUpLeg
		{
			OFFSET 1.09156 -1.61406 0.76500
			CHANNELS 3 Zrotation Yrotation Xrotation
			JOINT LeftLeg
			{
				OFFSET 2.33750 -6.42225 0.00000
				CHANNELS 3 Zrotation Yrotation Xrotation
				JOINT LeftFoot
				{
					OFFSET 2.49247 -6.84800 0.00000
					CHANNELS 3 Zrotation Yrotation Xrotation
					JOINT LeftToeBase
					{
						OFFSET 0.15312 -0.42069 1.45461
						CHANNELS 3 Zrotation Yrotation Xrotation
						End Site
						{
							OFFSET 0.00000 -0.00000 0.77046
						}
					}
				}
			}
		}
	}
	JOINT RHipJoint
	{
		OFFSET 0 0 0
		CHANNELS 3 Zrotation Yrotation Xrotation
		JOINT RightUpLeg
		{
			OFFSET -0.99883 -1.61406 0.76500
			CHANNELS 3 Zrotation Yrotation Xrotation
			JOINT RightLeg
			{
				OFFSET -2.36877 -6.50815 0.00000
				CHANNELS 3 Zrotation Yrotation Xrotation
				JOINT RightFoot
				{
					OFFSET -2.53452 -6.96353 0.00000
					CHANNELS 3 Zrotation Yrotation Xrotation
					JOINT RightToeBase
					{
						OFFSET -0.13156 -0.36145 1.63237
						CHANNELS 3 Zrotation Yrotation Xrotation
						End Site
						{
							OFFSET -0.00000 -0.00000 0.84979
						}
					}
				}
			}
		}
	}
	JOINT LowerBack
	{
		OFFSET 0 0 0
		CHANNELS 3 Zrotation Yrotation Xrotation
		JOINT Spine
		{
			OFFSET -0.02431 1.98242 -0.13616
			CHANNELS 3 Zrotation Yrotation Xrotation
			JOINT Spine1
			{
				OFFSET 0.03629 1.98974 -0.02954
				CHANNELS 3 Zrotation Yrotation Xrotation
				JOINT Neck
				{
					OFFSET 0 0 0
					CHANNELS 3 Zrotation Yrotation Xrotation
					JOINT Neck1
					{
						OFFSET 0.09349 1.40783 0.22333
						CHANNELS 3 Zrotation Yrotation Xrotation
						JOINT Head
						{
							OFFSET -0.04273 1.44500 -0.06495
							CHANNELS 3 Zrotation Yrotation Xrotation
							End Site
							{
								OFFSET -0.02251 1.44600 -0.04544
							}
						}
					}
				}
				JOINT LeftShoulder
				{
					OFFSET 0 0 0
					CHANNELS 3 Zrotation Yrotation Xrotation
					JOINT LeftArm
					{
						OFFSET 3.49137 0.85126 -0.29740
						CHANNELS 3 Zrotation Yrotation Xrotation
						JOINT LeftForeArm
						{
							OFFSET 5.06035 -0.00000 0.00000
							CHANNELS 3 Zrotation Yrotation Xrotation
							JOINT LeftHand
							{
								OFFSET 3.14780 -0.00000 0.00000
								CHANNELS 3 Zrotation Yrotation Xrotation
								JOINT LeftFingerBase
								{
									OFFSET 0 0 0
									CHANNELS 3 Zrotation Yrotation Xrotation
									JOINT LeftHandIndex1
									{
										OFFSET 0.60675 -0.00000 0.00000
										CHANNELS 3 Zrotation Yrotation Xrotation
										End Site
										{
											OFFSET 0.48918 -0.00000 0.00000
										}
									}
								}
								JOINT LThumb
								{
									OFFSET 0 0 0
									CHANNELS 3 Zrotation Yrotation Xrotation
									End Site
									{
										OFFSET 0.49664 -0.00000 0.49664
									}
								}
							}
						}
					}
				}
				JOINT RightShoulder
				{
					OFFSET 0 0 0
					CHANNELS 3 Zrotation Yrotation Xrotation
					JOINT RightArm
					{
						OFFSET -3.28101 0.69707 0.00747
						CHANNELS 3 Zrotation Yrotation Xrotation
						JOINT RightForeArm
						{
							OFFSET -5.12273 -0.00000 -0.00000
							CHANNELS 3 Zrotation Yrotation Xrotation
							JOINT RightHand
							{
								OFFSET -3.42200 -0.00000 0.00000
								CHANNELS 3 Zrotation Yrotation Xrotation
								JOINT RightFingerBase
								{
									OFFSET 0 0 0
									CHANNELS 3 Zrotation Yrotation Xrotation
									JOINT RightHandIndex1
									{
										OFFSET -0.70460 -0.00000 0.00000
										CHANNELS 3 Zrotation Yrotation Xrotation
										End Site
										{
											OFFSET -0.56807 -0.00000 0.00000
										}
									}
								}
								JOINT RThumb
								{
									OFFSET 0 0 0
									CHANNELS 3 Zrotation Yrotation Xrotation
									End Site
									{
										OFFSET -0.57674 -0.00000 0.57674
									}
								}
							}
						}
					}
				}
			}
		}
	}
}
MOTION
Frames: 6
Frame Time: .0083333
-33.6484 15.9090 -1.5159 423.1610 90.9622 428.1440 0.0000 0.0000 0.0000 -18.3251 -2.7882 -9.4059 2.3343 9.5302 27.4685 1.7341 5.1114 -27.1516 0.0129 -0.7321 -2.0121 0.0000 0.0000 0.0000 14.4753 6.7073 -4.0582 -1.1112 -6.6972 18.8213 0.2999 -14.7494 -17.2834 -0.7767 5.6268 -15.7054 -2.8890 -1.0814 -6.3094 0.6807 -1.2181 -2.9197 2.2397 -0.5542 0.6030 4.6414 3.1315 -2.6613 0.0947 4.0048 8.2434 -0.6254 2.1648 3.2153 -0.0000 0.0000 0.0000 -90.6595 -4.0946 20.7999 6.2675 -10.7076 -0.5879 -0.0000 -0.0000 10.5156 14.0867 44.5562 9.9851 -7.1250 0.0000 -0.0000 -39.2386 72.0583 -26.3879 -0.0000 0.0000 0.0000 91.1892 -0.8777 6.5103 -8.1928 13.8649 -0.9978 0.0000 0.0000 17.6396 -26.1970 32.0718 -14.6408 7.1250 -0.0000 -0.0000 3.1494 4.9015 3.4119
-33.6288 15.9015 -1.5297 459.1570 90.9303 463.9350 0.0000 0.0000 0.0000 -18.4690 -2.9525 -8.8876 2.3302 9.5224 27.4435 1.7022 5.9075 -27.3707 0.0076 -0.5611 -1.5419 0.0000 0.0000 0.0000 14.4096 6.6292 -3.9555 -1.1146 -6.7069 18.8499 0.2678 -14.2985 -16.9523 -0.8686 5.9423 -16.6172 -2.7611 -0.8672 -6.4190 0.6691 -0.9386 -2.8159 2.1733 -0.4201 0.7519 4.3902 2.8819 -2.5324 0.1335 3.6877 8.1457 -0.5842 1.9994 3.1410 -0.0000 -0.0000 0.0000 -90.5773 -3.9046 21.5539 6.3696 -10.8771 -0.6070 -0.0000 -0.0000 9.7279 14.3837 45.0044 10.2791 -7.1250 0.0000 -0.0000 -39.9700 72.4797 -27.2684 -0.0000 -0.0000 0.0000 91.2108 -0.9048 6.4238 -8.2072 13.8882 -1.0013 0.0000 0.0000 17.6621 -25.5152 32.3582 -14.3301 7.1250 -0.0000 -0.0000 3.5812 5.0305 3.8888
-33.6285 15.9037 -1.5327 460.2280 90.9283 465.0240 0.0000 0.0000 0.0000 -18.4892 -2.9159 -8.9118 2.3261 9.5147 27.4189 1.6967 5.8986 -27.3275 0.0076 -0.5634 -1.5482 0.0000 0.0000 0.0000 14.3906 6.6117 -3.9802 -1.1186 -6.7187 18.8846 0.2026 -13.9981 -17.3634 -0.7863 5.6607 -15.8030 -2.8431 -0.8724 -6.4505 0.7020 -0.9411 -2.7644 2.2524 -0.4229 0.8242 4.2835 2.5854 -2.6419 -0.0459 3.3018 8.1469 -0.6374 1.7973 3.1542 -0.0000 0.0000 0.0000 -90.5686 -3.9557 21.7645 6.3853 -10.9033 -0.6100 -0.0000 -0.0000 9.3460 14.3276 45.0246 10.2417 -7.1250 0.0000 -0.0000 -40.0751 72.4739 -27.3416 -0.0000 0.0000 0.0000 91.2343 -0.8063 6.1361 -8.2375 13.9371 -1.0086 0.0000 0.0000 18.0260 -25.4201 32.3758 -14.2781 7.1250 -0.0000 -0.0000 3.6374 5.0256 3.9498
-33.6333 15.9088 -1.5318 468.2430 91.1138 473.1750 0.0000 0.0000 0.0000 -18.3208 -2.7713 -9.1514 2.3327 9.5271 27.4585 1.7090 5.8660 -27.3940 0.0068 -0.5330 -1.4646 0.0000 0.0000 0.0000 14.5167 6.6523 -4.1850 -1.1196 -6.7216 18.8931 0.1515 -13.6557 -17.5088 -0.7032 5.3599 -14.9380 -2.2134 -0.8344 -6.5167 0.3180 -0.9200 -2.7885 1.5040 -0.4173 0.8202 4.2561 2.3321 -2.5839 0.2475 2.9462 8.1855 -0.5510 1.6323 3.1408 -0.0000 -0.0000 0.0000 -89.8111 -3.8915 22.1042 6.4083 -10.9413 -0.6144 -0.0000 -0.0000 8.7559 14.9901 44.8511 10.6941 -7.1250 0.0000 -0.0000 -38.9788 72.5879 -26.6218 -0.0000 -0.0000 0.0000 92.0220 -0.6857 5.7959 -8.1985 13.8740 -0.9992 0.0000 0.0000 18.8054 -25.9351 32.3100 -14.5712 7.1250 -0.0000 -0.0000 3.3382 5.0835 3.6268
-33.6248 15.9085 -1.5427 468.1720 91.1730 472.8470 0.0000 0.0000 0.0000 -18.3417 -2.9035 -8.7578 2.3366 9.5346 27.4825 1.7152 6.0858 -27.5627 0.0031 -0.3606 -0.9908 0.0000 0.0000 0.0000 14.5587 6.2630 -3.9766 -1.1106 -6.6954 18.8162 0.1788 -13.5917 -17.0299 -0.8373 5.8370 -16.3122 -2.7325 -0.9683 -6.3837 0.8672 -1.0817 -2.6732 2.3504 -0.4966 0.8907 3.4161 2.2748 -2.7368 0.2299 2.9062 8.2279 -0.4108 1.5848 3.1653 -0.0000 -0.0000 0.0000 -90.8397 -4.0513 20.2219 6.2186 -10.6263 -0.5789 -0.0000 -0.0000 10.4013 15.5868 44.6287 11.0877 -7.1250 0.0000 -0.0000 -37.8290 72.6417 -25.8167 -0.0000 -0.0000 0.0000 91.0704 -0.5708 6.7289 -8.1601 13.8121 -0.9900 0.0000 0.0000 18.2458 -25.9724 32.4088 -14.6324 7.1250 -0.0000 -0.0000 3.3350 5.1947 3.6291
-33.6235 15.8973 -1.5458 466.9400 91.2222 471.4980 0.0000 0.0000 0.0000 -18.3054 -2.9371 -8.6276 2.3471 9.5545 27.5458 1.7179 6.1360 -27.6098 0.0023 -0.3126 -0.8589 0.0000 0.0000 0.0000 14.6101 6.2544 -3.7945 -1.1026 -6.6720 18.7472 0.1409 -13.4942 -17.3984 -0.7403 5.4964 -15.3301 -3.0853 -0.9439 -6.3142 1.1420 -1.0359 -2.6013 2.8364 -0.4732 0.9337 2.9826 2.0778 -2.8240 0.2607 2.6597 8.2711 -0.3339 1.4502 3.1831 -0.0000 0.0000 0.0000 -91.3718 -4.2531 18.8781 6.0635 -10.3681 -0.5506 -0.0000 -0.0000 11.8957 15.1353 44.1240 10.6646 -7.1250 0.0000 -0.0000 -37.1625 72.1145 -24.9231 -0.0000 0.0000 0.0000 90.6393 -0.5157 6.9378 -8.1918 13.8633 -0.9976 0.0000 0.0000 17.6951 -25.8867 32.3427 -14.5538 7.1250 -0.0000 -0.0000 3.3710 5.1054 3.6638
